<?xml version="1.0" encoding="utf-8"?>
<!-- Generator: Adobe Illustrator 24.1.2, SVG Export Plug-In . SVG Version: 6.00 Build 0)  -->
<svg version="1.1" id="Warstwa_1" xmlns="http://www.w3.org/2000/svg" xmlns:xlink="http://www.w3.org/1999/xlink" x="0px" y="0px"
	 viewBox="0 0 430 430" style="enable-background:new 0 0 430 430;" xml:space="preserve">
<style type="text/css">
	.st0{fill:#121331;}
	.st1{fill:#564b71;}
	.st2{fill:#564b71;}
	.st3{fill:#08A688;}
	.st4{fill:#08A284;}
	.st5{fill:none;stroke:#121331;stroke-width:12;stroke-linecap:round;stroke-linejoin:round;stroke-miterlimit:10;}
	.st6{fill:none;stroke:#564b71;stroke-width:12;stroke-linecap:round;stroke-linejoin:round;stroke-miterlimit:10;}
	.st7{fill:none;}
	.st8{fill:none;stroke:#08A385;stroke-width:12;stroke-linecap:round;stroke-linejoin:round;stroke-miterlimit:10;}
	.st9{fill:#08A385;}
	.st10{fill:none;stroke:#564b71;stroke-width:12;stroke-linecap:round;stroke-linejoin:round;stroke-miterlimit:10;}
</style>
<g>
	<path class="st0" d="M176.98,380.61c-1.91,0-3.71-0.91-4.84-2.46c-1.13-1.54-1.46-3.54-0.88-5.36l24.5-77.12l-42.44-0.84
		c-10.4-0.06-20.22-4.23-27.54-11.74c-7.32-7.51-11.25-17.42-11.04-27.91c0.02-1.16,0.06-2.28,0.09-3.39
		c0.03-1.07,0.07-2.14,0.09-3.25c0.06-3.31,2.82-5.94,6.12-5.88c3.31,0.06,5.95,2.8,5.88,6.12c-0.02,1.16-0.06,2.27-0.09,3.39
		c-0.03,1.07-0.07,2.14-0.09,3.25c-0.14,7.25,2.57,14.11,7.63,19.3c5.06,5.19,11.85,8.08,19.1,8.12l50.56,1
		c1.89,0.04,3.66,0.97,4.76,2.5c1.1,1.54,1.41,3.51,0.84,5.31l-24.44,76.95l50.76-0.03c0.16-1.81-0.15-3.5-0.93-5.11
		c-3.05-6.31-12.54-10.4-15.94-11.44c-1.59-0.49-2.91-1.61-3.64-3.11c-0.73-1.49-0.81-3.23-0.22-4.78l25.32-66.15
		c1.06-3.91,0.41-8.09-1.8-11.5c-2.25-3.47-5.9-5.8-10-6.37l-44.39-5.5c-3.29-0.41-5.62-3.4-5.22-6.69c0.41-3.29,3.4-5.62,6.69-5.22
		l44.48,5.51c7.64,1.07,14.35,5.34,18.49,11.74c4.15,6.39,5.31,14.26,3.2,21.58c-0.05,0.16-0.1,0.32-0.16,0.48l-23.3,60.86
		c5.56,2.59,13.43,7.46,17.25,15.31c2.77,5.7,2.91,12.12,0.39,18.56c-0.9,2.3-3.12,3.81-5.58,3.81L176.98,380.61
		C176.98,380.61,176.98,380.61,176.98,380.61z M246.24,279.88L246.24,279.88L246.24,279.88z"/>
	<path class="st0" d="M191.87,120.64h-22.34c-13.8,0-25.03-11.23-25.03-25.03V74.42c0-13.8,11.23-25.03,25.03-25.03h9
		c13.8,0,25.03,11.23,25.03,25.03v34.53C203.56,115.4,198.32,120.64,191.87,120.64z M169.54,61.39c-7.18,0-13.03,5.84-13.03,13.03
		v21.19c0,7.18,5.84,13.03,13.03,13.03h22.03V74.42c0-7.18-5.85-13.03-13.03-13.03H169.54z"/>
	<path class="st1" d="M314.23,135.26c-0.71-2.61-3.08-4.42-5.79-4.42l-140.92,0.01c-0.06,0-0.13,0.01-0.19,0.01
		c-10.47,0.21-20.39,4.76-27.45,12.6c-1.09,1.14-6.27,6.98-8.99,17.83c-0.03,0.12-0.06,0.25-0.08,0.37l-15.79,85.89
		c-0.32,1.75,0.15,3.56,1.29,4.92c1.14,1.37,2.83,2.16,4.61,2.16h64.17c2.86,0,5.33-2.02,5.88-4.83l14.62-73.55
		c0.29-1.51,0.47-3.02,0.59-4.53l86.31,0.1c0,0,0,0,0.01,0c0.52,0,1.04-0.07,1.55-0.2c8.02-2.14,13.9-6.39,17.49-12.64
		C317.69,148.3,314.37,135.79,314.23,135.26z M301.14,153.02c-1.87,3.25-4.96,5.49-9.45,6.82l-115.14-0.13c0,0,0,0-0.01,0
		c-3.31,0-6,2.68-6,5.99c0,3.31,2.68,6,5.99,6.01l17.62,0.02c-0.08,0.74-0.18,1.49-0.33,2.23l-13.66,68.7h-52.04l14.45-78.61
		c2.07-8.1,5.94-12.24,5.94-12.24c0.08-0.08,0.16-0.16,0.23-0.24c5.11-5.71,12.41-8.87,20.04-8.7c0.06,0,0.12,0,0.18,0l134.28-0.01
		C303.38,145.77,303.07,149.66,301.14,153.02z"/>
</g>
</svg>
