<?xml version="1.0" encoding="utf-8"?>
<!-- Generator: Adobe Illustrator 24.1.2, SVG Export Plug-In . SVG Version: 6.00 Build 0)  -->
<svg version="1.1" id="Warstwa_1" xmlns="http://www.w3.org/2000/svg" xmlns:xlink="http://www.w3.org/1999/xlink" x="0px" y="0px"
	 viewBox="0 0 430 430" style="enable-background:new 0 0 430 430;" xml:space="preserve">
<style type="text/css">
	.st0{fill:#121331;}
	.st1{fill:#564b71;}
	.st2{fill:#564b71;}
	.st3{fill:#08A688;}
	.st4{fill:#08A284;}
	.st5{fill:none;stroke:#121331;stroke-width:12;stroke-linecap:round;stroke-linejoin:round;stroke-miterlimit:10;}
	.st6{fill:none;stroke:#564b71;stroke-width:12;stroke-linecap:round;stroke-linejoin:round;stroke-miterlimit:10;}
	.st7{fill:none;}
	.st8{fill:none;stroke:#08A385;stroke-width:12;stroke-linecap:round;stroke-linejoin:round;stroke-miterlimit:10;}
	.st9{fill:#08A385;}
	.st10{fill:none;stroke:#564b71;stroke-width:12;stroke-linecap:round;stroke-linejoin:round;stroke-miterlimit:10;}
</style>
<g>
	<path class="st0" d="M270.04,291.19c-0.01-0.13-0.03-0.26-0.05-0.38l-11.43-73.34c-0.51-3.27-3.58-5.52-6.85-5
		c-3.27,0.51-5.52,3.58-5,6.85l11.4,73.14c0,0.03,0.01,0.06,0.01,0.09c0.41,3.15-0.84,5.96-0.99,6.28l-22.23,39.4l-13.07-24.39
		l11.47-21.4c0.75-1.39,0.91-3.03,0.46-4.55l-13.01-43.71c-0.01-0.02-0.02-0.05-0.02-0.07c-0.02-0.05-0.04-0.1-0.05-0.15
		c-0.31-0.92-0.83-1.72-1.49-2.36c-0.51-0.5-1.12-0.91-1.8-1.21c-0.02-0.01-0.03-0.02-0.05-0.02c-0.12-0.05-0.25-0.1-0.38-0.14
		c-0.06-0.02-0.12-0.05-0.19-0.07c-0.02-0.01-0.04-0.02-0.07-0.02c-0.09-0.03-0.18-0.04-0.27-0.07c-0.08-0.02-0.16-0.04-0.25-0.06
		c-0.11-0.02-0.22-0.04-0.33-0.05c-0.09-0.01-0.17-0.03-0.26-0.04c-0.11-0.01-0.23-0.02-0.34-0.02c-0.08,0-0.16-0.01-0.25-0.01
		c-0.12,0-0.24,0.01-0.36,0.01c-0.08,0-0.15,0.01-0.23,0.01c-0.13,0.01-0.26,0.03-0.39,0.05c-0.06,0.01-0.12,0.02-0.19,0.03
		c-0.15,0.03-0.29,0.07-0.44,0.11c-0.04,0.01-0.08,0.02-0.12,0.03c-0.01,0-0.02,0.01-0.03,0.01c-0.15,0.05-0.3,0.1-0.45,0.16
		c-0.04,0.01-0.08,0.03-0.12,0.04c-0.15,0.06-0.29,0.13-0.44,0.21c-0.03,0.02-0.07,0.03-0.1,0.05c-1.33,0.72-2.39,1.93-2.88,3.48
		c0,0,0,0.01,0,0.01c-0.01,0.03-0.02,0.06-0.03,0.09l-12.96,43.72c-0.45,1.51-0.28,3.15,0.46,4.54l12.93,24.13
		c0.03,0.06,0.06,0.11,0.09,0.16l19.62,36.62c0.01,0.03,0.03,0.05,0.04,0.08l4.39,8.19l-35.72,19.2c-0.01-0.04-0.02-0.07-0.02-0.11
		c-0.59-2.63,0.59-6.64,2.35-10.5c0.03-0.06,0.06-0.12,0.09-0.19c1.3-2.82,2.9-5.55,4.33-7.56c1.36-1.9,1.5-4.41,0.35-6.44
		l-32.27-57.19c-0.16-0.33-1.39-3.14-0.99-6.26l11.41-73.23c0.51-3.27-1.73-6.34-5-6.85c-3.28-0.51-6.34,1.73-6.85,5l-11.43,73.34
		c-0.01,0.07-0.02,0.15-0.03,0.23c-0.9,7.06,1.96,12.76,2.29,13.39c0.03,0.05,0.06,0.1,0.08,0.15l26.04,46.15l-5.61,10.48
		c-1.56,2.92-0.47,6.55,2.45,8.12l2.18,1.18c-1.32,4.16-2.01,8.65-1.1,12.77c0.98,4.41,3.61,7.94,7.61,10.19
		c0.91,0.52,1.93,0.77,2.95,0.77c0.98,0,1.95-0.24,2.84-0.71l15.26-8.2l15.28,8.21c0.89,0.48,1.86,0.71,2.84,0.71
		c1.02,0,2.03-0.26,2.95-0.77c3.74-2.11,11.19-8.34,6.52-22.97l2.17-1.17c2.92-1.57,4.01-5.2,2.45-8.12l-5.61-10.48l26.04-46.15
		c0.03-0.05,0.06-0.1,0.09-0.16C268.06,303.81,270.89,298.19,270.04,291.19z M215.01,266.95l6.54,21.99l-6.53,12.19l-6.53-12.19
		L215.01,266.95z M231.91,380.78l-4.21-2.26l4.09-2.2C232.15,377.97,232.26,379.53,231.91,380.78z"/>
	<path class="st0" d="M228.7,103.65h-17.05c-14.92,0-27.05-12.14-27.05-27.05V62.8c0-14.92,12.14-27.05,27.05-27.05h2.3
		c14.92,0,27.05,12.14,27.05,27.05v28.56C241,98.14,235.48,103.65,228.7,103.65z M211.65,47.75c-8.3,0-15.05,6.75-15.05,15.05v13.8
		c0,8.3,6.75,15.05,15.05,15.05h17.05c0.15,0,0.3-0.15,0.3-0.3V62.8c0-8.3-6.75-15.05-15.05-15.05H211.65z"/>
	<g>
		<path class="st2" d="M282.8,150.73c1.12,1.06,2.6,1.65,4.13,1.65c0.22,0,0.44-0.01,0.65-0.04c1.75-0.19,3.33-1.15,4.32-2.61
			l2.83-4.19c1.85-2.75,1.13-6.48-1.61-8.33c-2.19-1.48-4.99-1.32-6.98,0.19c-2.4-1.83-5.85-1.59-7.98,0.65
			c-2.28,2.4-2.18,6.2,0.23,8.48L282.8,150.73z"/>
		<path class="st2" d="M325.49,137.2c-2.75-1.84-6.48-1.1-8.32,1.65l-27.24,40.75l-33.17-31.33c-0.02-0.01-0.03-0.02-0.05-0.04
			c-0.27-0.25-0.56-0.48-0.87-0.67c-0.03-0.02-0.06-0.04-0.09-0.06c-0.31-0.19-0.63-0.34-0.97-0.47c-0.03-0.01-0.06-0.02-0.09-0.03
			c-0.33-0.12-0.68-0.21-1.04-0.28c-0.03,0-0.05-0.01-0.08-0.01c-0.31-0.05-0.62-0.08-0.93-0.08c-0.05,0-0.1,0.01-0.15,0.01
			c-0.02,0-0.04,0-0.06,0c-0.38,0.01-0.75,0.06-1.1,0.14c0,0,0,0,0,0c-0.38,0.09-0.75,0.21-1.1,0.36c0,0,0,0-0.01,0
			c-0.36,0.16-0.7,0.35-1.01,0.57c-0.01,0.01-0.02,0.01-0.03,0.02c-0.32,0.23-0.62,0.48-0.89,0.77c0,0.01-0.01,0.01-0.02,0.01
			c-0.01,0.01-0.01,0.02-0.02,0.02c-0.26,0.28-0.5,0.58-0.7,0.91c-0.01,0.02-0.03,0.05-0.04,0.07c-0.19,0.31-0.35,0.64-0.48,0.98
			c-0.01,0.03-0.02,0.05-0.03,0.08c-0.12,0.33-0.21,0.68-0.27,1.04c-0.01,0.03-0.01,0.06-0.01,0.09c-0.05,0.3-0.08,0.61-0.08,0.92
			v59.76h-63.22l-0.03-59.77c0-3.25-2.59-5.89-5.82-5.99c-0.01,0-0.03,0-0.04,0c-0.05,0-0.09-0.01-0.14-0.01c0,0,0,0,0,0
			c-0.31,0-0.62,0.03-0.92,0.08c-0.04,0.01-0.09,0.01-0.13,0.02c-0.33,0.06-0.65,0.14-0.96,0.26c-0.06,0.02-0.13,0.05-0.19,0.07
			c-0.29,0.12-0.57,0.25-0.84,0.41c-0.08,0.05-0.16,0.09-0.23,0.14c-0.25,0.16-0.49,0.35-0.71,0.55c-0.05,0.04-0.1,0.07-0.15,0.12
			l-33.17,31.33l-27.24-40.75c-1.84-2.75-5.57-3.5-8.32-1.65c-2.75,1.84-3.49,5.57-1.65,8.32l31.19,46.65
			c0.98,1.47,2.56,2.43,4.32,2.63c0.22,0.02,0.45,0.04,0.67,0.04c1.52,0,3-0.58,4.12-1.64l28.24-26.67l0.03,51.87c0,3.31,2.69,6,6,6
			h75.21c3.31,0,6-2.69,6-6v-51.84l28.21,26.64c1.12,1.06,2.6,1.64,4.12,1.64c0.22,0,0.45-0.01,0.67-0.04
			c1.76-0.2,3.33-1.16,4.32-2.63l31.19-46.65C328.98,142.76,328.24,139.04,325.49,137.2z"/>
		<path class="st2" d="M322.28,89.63c-2.34-0.42-4.71,0.58-6.04,2.55l-14.44,21.41c-1.85,2.75-1.13,6.48,1.62,8.33
			c2.75,1.85,6.48,1.13,8.33-1.62l11.97-17.74c3.85,1.65,8.97,5.41,7.96,13.66c-0.4,3.29,1.94,6.28,5.23,6.68
			c0.25,0.03,0.49,0.04,0.74,0.04c2.99,0,5.58-2.23,5.95-5.27C345.88,98.94,330.65,91.14,322.28,89.63z"/>
		<path class="st2" d="M138.11,149.73c0.99,1.46,2.57,2.41,4.32,2.61c0.22,0.02,0.44,0.04,0.65,0.04c1.53,0,3.01-0.58,4.13-1.65
			l4.42-4.19c2.4-2.28,2.51-6.08,0.23-8.48c-2.13-2.24-5.57-2.48-7.98-0.65c-1.99-1.51-4.8-1.67-6.98-0.19
			c-2.75,1.85-3.47,5.58-1.61,8.33L138.11,149.73z"/>
		<path class="st2" d="M106.28,102.55l11.97,17.75c1.85,2.75,5.58,3.47,8.33,1.62c2.75-1.85,3.47-5.58,1.62-8.33l-14.44-21.41
			c-1.33-1.97-3.7-2.97-6.04-2.55c-8.37,1.51-23.6,9.31-21.31,28.04c0.37,3.04,2.96,5.27,5.95,5.27c0.24,0,0.49-0.01,0.74-0.04
			c3.29-0.4,5.63-3.4,5.23-6.68C97.31,107.96,102.44,104.19,106.28,102.55z"/>
	</g>
	<path class="st0" d="M389.19,148.18H40.81c-10.27,0-18.62-8.35-18.62-18.62c0-10.27,8.35-18.62,18.62-18.62h348.38
		c10.27,0,18.62,8.35,18.62,18.62C407.81,139.83,399.45,148.18,389.19,148.18z M40.81,122.94c-3.65,0-6.62,2.97-6.62,6.62
		s2.97,6.62,6.62,6.62h348.38c3.65,0,6.62-2.97,6.62-6.62s-2.97-6.62-6.62-6.62H40.81z"/>
</g>
</svg>
