<?xml version="1.0" encoding="utf-8"?>
<!-- Generator: Adobe Illustrator 24.1.2, SVG Export Plug-In . SVG Version: 6.00 Build 0)  -->
<svg version="1.1" id="Warstwa_1" xmlns="http://www.w3.org/2000/svg" xmlns:xlink="http://www.w3.org/1999/xlink" x="0px" y="0px"
	 viewBox="0 0 430 430" style="enable-background:new 0 0 430 430;" xml:space="preserve">
<style type="text/css">
	.st0{fill:#121331;}
	.st1{fill:#08a88a;}
	.st2{fill:#08a88a;}
	.st3{fill:#08A688;}
	.st4{fill:#08A284;}
	.st5{fill:none;stroke:#121331;stroke-width:12;stroke-linecap:round;stroke-linejoin:round;stroke-miterlimit:10;}
	.st6{fill:none;stroke:#08a88a;stroke-width:12;stroke-linecap:round;stroke-linejoin:round;stroke-miterlimit:10;}
	.st7{fill:none;}
	.st8{fill:none;stroke:#08A385;stroke-width:12;stroke-linecap:round;stroke-linejoin:round;stroke-miterlimit:10;}
	.st9{fill:#08A385;}
	.st10{fill:none;stroke:#08a88a;stroke-width:12;stroke-linecap:round;stroke-linejoin:round;stroke-miterlimit:10;}
</style>
<g>
	<path class="st1" d="M345.25,312.65c-3.31,0-6-2.69-6-6c0-18.96-15.73-34.39-35.07-34.39c-3.31,0-6-2.69-6-6s2.69-6,6-6
		c25.95,0,47.07,20.81,47.07,46.39C351.25,309.96,348.56,312.65,345.25,312.65z"/>
	<path class="st1" d="M160.73,350.11c-38.54,0-69.36-13.8-70.65-14.39c-3.02-1.37-4.35-4.93-2.98-7.94
		c1.37-3.02,4.93-4.35,7.94-2.98c0.42,0.19,29.93,13.31,65.7,13.31c0.12,0,0.24,0.01,0.37,0c3.31,0,5.99,2.68,6,5.99
		c0.01,3.31-2.67,6.01-5.99,6.01C160.99,350.11,160.86,350.11,160.73,350.11z"/>
	<path class="st0" d="M356.1,253.6c-14.39-14.06-33.31-21.8-53.29-21.8c-25.83,0-49.89,13.61-63.39,35.28
		c-9.92-8.57-22.62-13.37-35.92-13.37c-15.69,0-30.21,6.54-40.46,17.69c-8.19-50.53-2.65-86.47,3.83-108.33
		c5.8-19.53,13.26-31.3,16.55-35.87c11.93,0.7,53.48,3.11,67.41,3.4c7.18,0.14,12.2-4.27,13.11-11.53
		c0.72-5.81-1.45-11.8-5.81-16.01l-2.61-2.52l3-4.54c5.04-7.62,4.24-17.65-1.93-24.39L243.7,57.54c-6.52-7.12-16.39-10.1-25.75-7.79
		c-29.31,7.25-79.48,23.3-87.32,49.59l-29.4,67.56c-37.16,55.68-47.06,117.4-49.66,149.28c-1.6,19.7,10.19,38.19,28.68,44.97
		c31.07,11.39,60.2,15.02,84.72,15.02c14.74,0,27.81-1.31,38.63-3.04c23.48-3.75,40.26-9.9,47.53-12.91
		c13.68,13.15,32.08,20.79,51.68,20.79c19.98,0,38.9-7.74,53.29-21.8c14.5-14.17,22.48-32.92,22.48-52.8
		C378.58,286.52,370.6,267.76,356.1,253.6z M302.81,369.01c-17.65,0-34.15-7.39-45.84-19.96c-0.05-0.05-0.09-0.1-0.14-0.15
		c-3.58-3.88-6.71-8.23-9.27-13.02c-1.56-2.92-5.2-4.02-8.12-2.46c-2.92,1.56-4.02,5.2-2.46,8.12c1.71,3.19,3.63,6.22,5.74,9.09
		c-8.07,3.04-22.55,7.75-41.47,10.73c-27.3,4.3-69.74,5.81-116.87-11.47c-13.45-4.93-22.02-18.38-20.85-32.72
		c2.51-30.81,12.08-90.49,47.97-144.03c0.2-0.3,0.37-0.62,0.52-0.95l29.77-68.41c0.11-0.25,0.2-0.51,0.28-0.78
		c4.17-14.88,33.61-30.44,78.77-41.6c5.1-1.26,10.47,0.37,14.02,4.24l12.88,14.07c2.45,2.67,2.76,6.65,0.76,9.67l-3.47,5.26
		l-17.39-3.82l3.24-8.57c1.17-3.1-0.39-6.56-3.49-7.73c-3.1-1.17-6.56,0.39-7.74,3.49l-5.7,15.07c-0.62,1.63-0.49,3.45,0.34,4.98
		c0.83,1.53,2.29,2.63,3.99,3l26.54,5.82l4.98,4.81c1.66,1.6,2.5,3.81,2.24,5.9c-0.06,0.51-0.16,0.81-0.22,0.97
		c-0.13,0.03-0.36,0.06-0.72,0.05c-15.75-0.33-69.56-3.54-70.1-3.57c-1.84-0.1-3.63,0.63-4.85,2.01
		c-0.49,0.55-12.05,13.81-20.49,41.71c-7.64,25.26-14.15,68.16-1.8,129.09c0.66,3.25,3.82,5.34,7.07,4.69
		c1.26-0.26,2.35-0.9,3.17-1.77c0.02-0.02,0.04-0.05,0.06-0.07c0.16-0.17,0.31-0.36,0.44-0.55c0.02-0.03,0.05-0.06,0.07-0.1
		c0.15-0.21,0.28-0.44,0.4-0.67c0.01-0.01,0.02-0.02,0.02-0.04c7.37-14.59,22.09-23.65,38.43-23.65c12.63,0,24.57,5.52,32.76,15.15
		c0.01,0.01,0.02,0.02,0.03,0.04c0.09,0.1,0.18,0.2,0.28,0.29c0.05,0.05,0.09,0.1,0.14,0.14c0.08,0.08,0.17,0.15,0.26,0.22
		c0.07,0.06,0.14,0.12,0.21,0.17c0.07,0.05,0.14,0.1,0.21,0.15c0.1,0.07,0.2,0.14,0.3,0.2c0.05,0.03,0.11,0.06,0.16,0.09
		c0.12,0.07,0.24,0.14,0.37,0.2c0.01,0.01,0.03,0.02,0.04,0.02c0.05,0.02,0.1,0.04,0.14,0.06c0.12,0.05,0.24,0.1,0.36,0.15
		c0.09,0.03,0.17,0.06,0.26,0.09c0.09,0.03,0.19,0.06,0.28,0.09c0.11,0.03,0.22,0.05,0.33,0.07c0.08,0.02,0.15,0.03,0.23,0.04
		c0.12,0.02,0.24,0.03,0.36,0.05c0.07,0.01,0.14,0.01,0.21,0.02c0.12,0.01,0.24,0.01,0.36,0.01c0.08,0,0.15,0,0.23,0
		c0.11,0,0.22-0.01,0.33-0.02c0.09-0.01,0.18-0.02,0.26-0.03c0.09-0.01,0.19-0.03,0.28-0.05c0.1-0.02,0.2-0.04,0.3-0.06
		c0.08-0.02,0.16-0.04,0.24-0.06c0.11-0.03,0.22-0.06,0.33-0.1c0.07-0.02,0.14-0.05,0.21-0.08c0.11-0.04,0.22-0.08,0.32-0.13
		c0.07-0.03,0.15-0.07,0.22-0.11c0.1-0.05,0.19-0.1,0.29-0.15c0.09-0.05,0.17-0.1,0.25-0.16c0.08-0.05,0.15-0.1,0.23-0.15
		c0.1-0.07,0.2-0.15,0.29-0.23c0.04-0.04,0.09-0.07,0.13-0.1c0.01-0.01,0.02-0.02,0.04-0.03c0.1-0.09,0.19-0.18,0.29-0.27
		c0.05-0.05,0.1-0.1,0.15-0.15c0.08-0.08,0.15-0.17,0.22-0.26c0.06-0.07,0.12-0.14,0.17-0.21c0.05-0.07,0.1-0.14,0.14-0.2
		c0.07-0.1,0.14-0.2,0.2-0.3c0.03-0.05,0.06-0.11,0.09-0.16c0.07-0.12,0.14-0.24,0.2-0.37c0.01-0.01,0.02-0.03,0.02-0.04
		c10.33-21.72,32.54-35.75,56.57-35.75c35.16,0,63.77,28.09,63.77,62.62C366.58,340.93,337.98,369.01,302.81,369.01z"/>
	<g>
		<path class="st1" d="M260.52,215.29c-1.91,0-3.79-0.91-4.95-2.6l-16.71-24.33c-1.88-2.73-1.18-6.47,1.55-8.34
			c2.73-1.88,6.47-1.18,8.34,1.55l16.71,24.33c1.88,2.73,1.18,6.47-1.55,8.34C262.87,214.95,261.69,215.29,260.52,215.29z"/>
		<path class="st1" d="M340.74,215.29c-1.17,0-2.35-0.34-3.39-1.06c-2.73-1.88-3.42-5.61-1.55-8.34l16.71-24.33
			c1.88-2.73,5.61-3.43,8.34-1.55c2.73,1.88,3.42,5.61,1.55,8.34l-16.71,24.33C344.52,214.38,342.65,215.29,340.74,215.29z"/>
	</g>
	<path class="st1" d="M300.63,204.77c-3.31,0-6-2.69-6-6v-29.09c0-3.31,2.69-6,6-6s6,2.69,6,6v29.09
		C306.63,202.08,303.94,204.77,300.63,204.77z"/>
</g>
</svg>
