<?xml version="1.0" encoding="utf-8"?>
<!-- Generator: Adobe Illustrator 25.0.1, SVG Export Plug-In . SVG Version: 6.00 Build 0)  -->
<svg version="1.1" id="Layer_1" xmlns="http://www.w3.org/2000/svg" xmlns:xlink="http://www.w3.org/1999/xlink" x="0px" y="0px"
	 viewBox="0 0 430 430" style="enable-background:new 0 0 430 430;" xml:space="preserve">
<style type="text/css">
	.st0{fill:#8d5185;}
</style>
<path class="st0" d="M393,221H37c-3.3,0-6-2.7-6-6s2.7-6,6-6H393c3.3,0,6,2.7,6,6S396.4,221,393,221z"/>
<path class="st0" d="M393,221c-1.5,0-3.1-0.6-4.2-1.8l-53.4-53.4c-2.3-2.3-2.3-6.1,0-8.5c2.3-2.3,6.1-2.3,8.5,0l53.4,53.4
	c2.3,2.3,2.3,6.1,0,8.5C396.1,220.4,394.6,221,393,221z"/>
<path class="st0" d="M339.6,274.4c-1.5,0-3.1-0.6-4.2-1.8c-2.3-2.3-2.3-6.1,0-8.5l53.4-53.4c2.3-2.3,6.1-2.3,8.5,0
	c2.3,2.3,2.3,6.1,0,8.5l-53.4,53.4C342.7,273.8,341.2,274.4,339.6,274.4z"/>
</svg>
