<?xml version="1.0" encoding="utf-8"?>
<!-- Generator: Adobe Illustrator 24.1.2, SVG Export Plug-In . SVG Version: 6.00 Build 0)  -->
<svg version="1.1" id="Warstwa_3" xmlns="http://www.w3.org/2000/svg" xmlns:xlink="http://www.w3.org/1999/xlink" x="0px" y="0px"
	 viewBox="0 0 430 430" style="enable-background:new 0 0 430 430;" xml:space="preserve">
<style type="text/css">
	.st0{fill:#5b5271;}
	.st1{fill:#121331;}
	.st2{fill:#5b5271;fill-opacity:0;}
	.st3{fill:none;}
</style>
<g>
	<path class="st1" d="M390.98,263.79c-3.48,0-6.3-2.82-6.3-6.3v-82.84c0-3.48,2.82-6.3,6.3-6.3s6.3,2.82,6.3,6.3v82.84
		C397.28,260.97,394.46,263.79,390.98,263.79z M39.02,261.65c-3.48,0-6.3-2.82-6.3-6.3v-82.84c0-3.48,2.82-6.3,6.3-6.3
		s6.3,2.82,6.3,6.3v82.84C45.32,258.83,42.5,261.65,39.02,261.65z M315.48,221.42H115.24c-3.48,0-6.3-2.82-6.3-6.3s2.82-6.3,6.3-6.3
		h200.24c3.48,0,6.3,2.82,6.3,6.3S318.96,221.42,315.48,221.42z"/>
	<path class="st0" d="M362.92,294.99h-43.41c-3.48,0-6.3-2.82-6.3-6.3V141.6c0-3.48,2.82-6.3,6.3-6.3h43.41c3.48,0,6.3,2.82,6.3,6.3
		v147.1C369.22,292.17,366.4,294.99,362.92,294.99z M325.81,282.39h30.81V147.9h-30.81V282.39z M110.49,294.71H67.08
		c-3.48,0-6.3-2.82-6.3-6.3v-147.1c0-3.48,2.82-6.3,6.3-6.3h43.41c3.48,0,6.3,2.82,6.3,6.3v147.1
		C116.79,291.88,113.97,294.71,110.49,294.71z M73.38,282.11h30.81v-134.5H73.38V282.11z"/>
</g>
</svg>
